# xmcd
# 
# Track frame offsets:
#     150
#     37330
#     59045
#     88768
#     109753
#     140470
#     166755
#     211798
# 
# Disc length: 3084
# 
# Revision: 0
# Processed by: cddbd v1.5.2PL0 Copyright (c) Steve Scherf et al.
# Submitted via: BonkEnc v1.0.8
# 
DISCID=710c0a08
DTITLE=Travis Shook - Travis Shook
DYEAR=1993
DGENRE=Jazz
TTITLE0=Broadway
TTITLE1=Astarte
TTITLE2=Witchcraft
TTITLE3=Dewey North
TTITLE4=Little Girl I'll Miss You
TTITLE5=Touch And Go
TTITLE6=Love For Sale
TTITLE7=My Foolish Heart
EXTD=
EXTT0=
EXTT1=
EXTT2=
EXTT3=
EXTT4=
EXTT5=
EXTT6=
EXTT7=
PLAYORDER=
